<?xml version="1.0" standalone="no"?>
<!DOCTYPE svg PUBLIC "-//W3C//DTD SVG 20010904//EN"
 "http://www.w3.org/TR/2001/REC-SVG-20010904/DTD/svg10.dtd">
<svg version="1.0" xmlns="http://www.w3.org/2000/svg"
 width="204.000000pt" height="192.000000pt" viewBox="0 0 204.000000 192.000000"
 preserveAspectRatio="xMidYMid meet">

<g transform="translate(0.000000,192.000000) scale(0.100000,-0.100000)"
fill="#000000" stroke="none">
<path d="M0 960 l0 -960 1020 0 1020 0 0 960 0 960 -1020 0 -1020 0 0 -960z
m1091 808 c1 -41 1 -41 8 -12 16 67 41 74 41 12 0 -32 3 -39 10 -28 5 8 10 25
10 38 0 16 6 22 21 22 17 0 20 -4 15 -22 -3 -13 -13 -54 -22 -91 -12 -53 -19
-67 -32 -65 -12 2 -19 17 -22 48 l-6 45 -8 -42 c-6 -33 -12 -43 -27 -43 -17 0
-19 8 -19 90 0 73 3 90 15 90 11 0 15 -12 16 -42z m-162 -40 c18 -76 10 -104
-30 -113 -41 -9 -62 13 -77 83 -16 74 -5 94 51 90 l42 -3 14 -57z m461 7 c38
-19 38 -43 2 -115 -20 -40 -33 -56 -50 -58 -30 -5 -62 24 -62 55 0 43 48 124
78 132 2 1 16 -6 32 -14z m-709 -25 c20 -11 69 -99 69 -124 0 -24 -29 -46 -61
-46 -24 0 -33 8 -59 53 -35 61 -35 96 0 114 30 15 27 15 51 3z m931 -133 c7
-15 5 -24 -13 -43 -12 -13 -28 -24 -34 -24 -7 0 -20 -18 -30 -40 -10 -22 -22
-40 -27 -40 -18 0 -20 33 -5 66 20 40 13 44 -15 9 -22 -29 -36 -32 -44 -10 -4
10 15 40 51 81 l58 65 24 -23 c14 -13 29 -31 35 -41z m-1106 6 c-4 -9 12 -34
41 -65 51 -52 58 -71 32 -76 -10 -2 -34 17 -60 48 -30 35 -47 49 -60 45 -33
-11 -33 17 0 47 32 29 57 29 47 1z m781 -107 c126 -39 200 -129 210 -258 19
-234 -126 -368 -397 -368 l-81 0 3 -72 3 -73 28 3 c16 2 26 -1 23 -6 -3 -5 8
-22 24 -38 16 -16 30 -33 30 -38 0 -15 42 -56 57 -56 26 0 11 -16 -63 -64
l-75 -49 -35 16 c-24 12 -61 17 -119 17 l-85 0 0 54 c0 35 -5 58 -15 66 -13
11 -13 16 1 41 10 21 14 53 12 109 l-3 79 -83 -70 -83 -70 -32 25 c-56 43 -97
115 -97 170 0 62 22 95 133 204 l112 111 22 -21 c25 -24 32 -16 8 8 -23 23
-18 40 5 19 20 -18 20 -17 20 127 0 79 3 148 8 153 13 14 412 -2 469 -19z
m440 -27 c2 -8 -21 -30 -50 -49 -38 -26 -52 -42 -52 -60 0 -13 -5 -25 -11 -27
-13 -4 -47 43 -42 58 5 14 132 99 143 95 6 -1 11 -9 12 -17z m-1281 -40 c74
-31 93 -56 40 -52 -26 2 -37 -19 -16 -32 15 -9 12 -25 -6 -32 -21 -8 -136 111
-128 132 9 21 26 19 110 -16z m1381 -166 c4 -28 1 -43 -8 -49 -31 -20 -115
-44 -132 -38 -18 6 -53 71 -43 81 13 13 162 60 169 53 5 -4 11 -26 14 -47z
m-1487 17 c8 -5 15 -24 15 -42 0 -28 4 -34 33 -42 32 -9 42 -29 21 -41 -12 -8
-169 46 -169 58 0 4 7 23 14 42 12 28 20 35 43 35 15 0 35 -5 43 -10z m1229
-363 c1 -42 -46 -134 -83 -162 -40 -30 -48 -31 -71 -5 -17 19 -17 21 11 52 16
18 48 52 71 76 23 24 45 57 49 75 6 28 8 30 15 12 4 -11 8 -33 8 -48z m-1455
-72 c-4 -8 -1 -15 7 -15 26 0 -2 -13 -31 -14 -36 -1 -38 6 -7 27 28 20 38 21
31 2z m1849 -98 c4 3 7 1 7 -5 0 -6 7 -9 15 -6 11 5 13 2 9 -11 -5 -11 -14
-15 -28 -11 -11 3 -24 6 -28 6 -5 0 -8 12 -8 28 1 24 2 25 14 10 7 -10 16 -15
19 -11z m-1799 -24 c7 -18 -17 -43 -41 -43 -23 0 -28 32 -8 46 25 19 42 18 49
-3z m1776 -106 c0 -5 -4 -5 -10 -2 -5 3 -10 -1 -10 -9 0 -13 -4 -14 -25 -4
-27 12 -32 27 -14 45 9 9 18 8 35 -5 13 -9 24 -21 24 -25z m-1720 3 c0 -5 -9
-14 -21 -20 -11 -7 -18 -14 -15 -17 3 -3 12 0 20 7 9 6 21 10 27 8 6 -2 -1
-12 -16 -22 -25 -17 -28 -17 -44 -2 -15 16 -14 18 9 36 28 22 40 25 40 10z
m1621 -80 c29 -16 25 -50 -6 -50 -27 0 -41 20 -31 45 6 18 11 18 37 5z m-1554
-64 c-15 -14 -27 -23 -27 -21 0 3 0 8 1 11 0 4 -5 11 -13 15 -10 7 -7 13 12
29 22 16 27 17 39 5 13 -12 11 -18 -12 -39z m1476 -44 c14 -15 15 -21 4 -36
-12 -16 -14 -15 -37 9 -21 22 -22 28 -10 35 21 13 25 13 43 -8z m-1299 -78 c4
-9 3 -20 0 -23 -4 -3 -9 0 -11 7 -4 10 -8 10 -19 1 -12 -10 -12 -14 -2 -20 7
-4 9 -11 5 -15 -4 -4 -14 -1 -22 7 -13 13 -13 17 1 37 18 26 39 29 48 6z
m1201 -14 c17 -11 27 -20 23 -21 -5 -1 -13 -2 -18 -3 -6 0 -14 -7 -19 -14 -5
-9 -11 -5 -19 13 -23 50 -14 56 33 25z m-1115 -55 c0 -9 6 -12 15 -9 20 8 18
-6 -5 -36 l-20 -25 0 25 c0 19 -2 22 -10 10 -15 -23 -22 -5 -9 24 13 28 29 35
29 11z m906 -40 c-3 -8 -1 -15 4 -15 5 0 6 -7 3 -17 -5 -12 -3 -14 7 -8 8 5
11 3 8 -5 -8 -26 -25 -21 -38 11 -11 26 -11 32 1 40 19 12 22 11 15 -6z m-768
-29 c4 -20 -15 -46 -34 -46 -18 0 -19 56 -1 63 19 8 32 2 35 -17z m668 -73
c-4 -4 -11 -1 -16 7 -7 10 -10 11 -10 3 0 -22 -16 -14 -28 12 -16 36 -15 38
13 33 14 -3 25 0 26 6 1 6 6 -4 12 -22 5 -18 7 -36 3 -39z m-577 11 c-9 -22
-13 -25 -16 -12 -5 19 18 69 24 52 2 -6 -2 -24 -8 -40z m129 7 c3 -10 0 -12
-12 -8 -11 5 -16 1 -16 -13 0 -14 5 -18 17 -13 11 4 14 3 9 -5 -4 -7 -16 -12
-27 -12 -20 0 -25 23 -13 55 8 19 35 16 42 -4z m112 -11 c-13 -9 -13 -10 0
-10 13 0 13 -1 0 -10 -12 -8 -13 -11 -1 -19 9 -6 10 -11 2 -15 -18 -11 -31 3
-31 35 0 23 4 29 23 29 18 0 19 -2 7 -10z m110 -49 c0 -6 -4 -13 -10 -16 -5
-3 -10 1 -10 9 0 9 5 16 10 16 6 0 10 -4 10 -9z"/>
<path d="M857 1763 c-5 -8 6 -77 19 -112 10 -30 25 6 18 47 -7 45 -27 81 -37
65z"/>
<path d="M1335 1658 c-22 -48 -24 -68 -6 -68 7 0 51 97 51 113 0 4 -5 7 -10 7
-6 0 -22 -23 -35 -52z"/>
<path d="M640 1669 c0 -16 51 -99 61 -99 15 0 10 21 -16 67 -25 41 -45 56 -45
32z"/>
<path d="M1552 1578 c-7 -7 -12 -16 -12 -20 0 -12 28 -10 36 3 10 17 -10 31
-24 17z"/>
<path d="M1142 1285 c1 -19 -1 -38 -5 -41 -4 -4 -32 -6 -62 -5 l-56 2 3 -107
3 -107 75 2 c130 4 180 46 180 153 0 68 -30 111 -88 128 -52 14 -53 14 -50
-25z"/>
<path d="M416 1376 c10 -8 21 -12 24 -10 5 6 -21 24 -34 24 -6 0 -1 -6 10 -14z"/>
<path d="M1745 1234 c-22 -8 -46 -17 -54 -19 -9 -4 -11 -9 -5 -15 12 -12 106
20 112 38 5 15 -2 14 -53 -4z"/>
<path d="M286 1233 c-11 -11 -6 -21 14 -26 12 -3 20 0 20 8 0 14 -25 27 -34
18z"/>
<path d="M125 690 c-3 -5 -2 -10 4 -10 5 0 13 5 16 10 3 6 2 10 -4 10 -5 0
-13 -4 -16 -10z"/>
<path d="M1820 495 c7 -8 17 -12 22 -9 6 4 5 10 -3 15 -22 14 -33 10 -19 -6z"/>
<path d="M1730 406 c0 -2 7 -9 15 -16 13 -11 14 -10 9 4 -5 14 -24 23 -24 12z"/>
<path d="M656 185 c-3 -8 -1 -15 4 -15 6 0 10 7 10 15 0 8 -2 15 -4 15 -2 0
-6 -7 -10 -15z"/>
</g>
</svg>
